<?xml version="1.0" standalone="no"?>
<!DOCTYPE svg PUBLIC "-//W3C//DTD SVG 20010904//EN"
 "http://www.w3.org/TR/2001/REC-SVG-20010904/DTD/svg10.dtd">
<svg version="1.0" xmlns="http://www.w3.org/2000/svg"
 width="382.000000pt" height="100.000000pt" viewBox="0 0 382.000000 100.000000"
 preserveAspectRatio="xMidYMid meet">
<metadata>
Created by potrace 1.13, written by Peter Selinger 2001-2015
</metadata>
<g transform="translate(0.000000,100.000000) scale(0.100000,-0.100000)"
fill="#000000" stroke="none">
<path d="M292 926 c-62 -35 -113 -67 -114 -72 0 -4 25 -22 55 -40 l56 -33 29
63 c16 35 47 82 67 105 21 22 33 41 29 41 -5 -1 -60 -29 -122 -64z"/>
<path d="M3363 800 c-36 -21 -63 -66 -63 -104 0 -19 -6 -25 -27 -28 -20 -2
-28 -9 -28 -23 0 -14 8 -21 28 -23 l27 -3 0 -130 c0 -129 0 -130 23 -127 21 3
22 7 25 131 l3 127 39 0 c36 0 40 3 40 25 0 23 -4 25 -40 25 -34 0 -40 3 -40
21 0 34 19 60 56 75 22 9 34 21 34 34 0 26 -34 26 -77 0z"/>
<path d="M1320 637 c0 -195 8 -225 71 -259 48 -26 69 -24 69 7 0 16 -6 25 -16
25 -8 0 -29 13 -45 29 l-29 29 0 171 0 171 -25 0 -25 0 0 -173z"/>
<path d="M3 490 l2 -245 200 -116 c110 -64 201 -115 203 -113 2 1 -23 50 -55
107 l-58 105 -103 -5 -103 -6 10 24 c5 13 25 62 45 107 20 46 36 89 36 95 0 6
-19 29 -43 52 -62 59 -105 125 -121 187 -14 50 -15 37 -13 -192z"/>
<path d="M1131 669 c-78 -16 -124 -82 -118 -165 7 -94 74 -151 168 -142 26 3
60 13 74 22 25 17 26 19 10 36 -15 17 -20 17 -39 5 -44 -28 -100 -22 -137 14
-23 24 -29 38 -29 74 0 55 27 92 79 108 32 9 44 8 75 -6 34 -16 39 -16 53 -2
14 14 13 17 -11 32 -35 23 -84 33 -125 24z"/>
<path d="M1580 668 c-76 -21 -129 -106 -114 -184 8 -43 52 -97 94 -114 40 -17
125 -8 150 15 18 17 19 20 6 34 -12 12 -20 12 -41 3 -43 -20 -90 -15 -124 14
-56 47 -45 53 97 56 l127 3 3 27 c2 14 -6 44 -17 66 -34 66 -110 99 -181 80z"/>
<path d="M2211 670 c-139 -32 -165 -233 -37 -294 47 -22 114 -20 155 5 32 19
32 21 16 39 -16 17 -20 18 -38 5 -12 -8 -40 -15 -63 -15 -34 0 -49 6 -73 31
-17 17 -31 35 -31 40 0 5 57 9 129 9 74 0 132 4 136 10 9 15 -13 84 -36 114
-37 47 -100 69 -158 56z"/>
<path d="M2710 667 c-41 -14 -70 -62 -62 -103 5 -29 54 -64 89 -64 29 0 71
-19 77 -35 2 -7 -2 -22 -10 -34 -20 -28 -84 -29 -109 -1 -24 27 -65 27 -58 1
3 -11 16 -30 30 -43 20 -19 35 -23 85 -23 53 0 62 3 84 28 46 54 24 128 -43
143 -91 20 -113 37 -90 67 7 9 24 19 39 22 21 5 33 1 53 -19 29 -29 65 -35 65
-10 0 20 -54 74 -73 74 -9 0 -21 2 -29 4 -7 3 -29 0 -48 -7z"/>
<path d="M3008 668 c-46 -12 -93 -64 -107 -116 -35 -128 113 -241 226 -173 31
19 31 19 36 0 3 -11 14 -19 26 -19 20 0 21 4 21 155 0 151 -1 155 -21 155 -13
0 -23 -8 -26 -20 -5 -18 -8 -19 -22 -7 -15 13 -41 23 -81 32 -8 1 -32 -2 -52
-7z m86 -52 c45 -19 66 -52 66 -104 0 -120 -172 -144 -210 -28 -20 63 32 142
98 145 7 1 28 -5 46 -13z"/>
<path d="M3554 670 c-78 -18 -133 -99 -121 -177 18 -107 145 -168 236 -112 32
19 32 21 16 39 -16 17 -20 18 -38 5 -46 -32 -133 -10 -155 39 l-12 26 130 0
c80 0 131 4 135 11 24 38 -47 150 -103 163 -15 4 -34 8 -42 10 -8 2 -29 0 -46
-4z"/>
<path d="M1781 643 c6 -16 38 -84 72 -153 49 -98 66 -125 82 -125 16 0 33 27
82 125 34 69 66 137 72 153 9 25 8 27 -15 27 -22 0 -32 -14 -80 -115 -31 -63
-57 -115 -59 -115 -2 0 -28 52 -59 115 -48 101 -58 115 -80 115 -23 0 -24 -2
-15 -27z"/>
<path d="M2444 657 c-2 -7 -3 -76 -2 -152 3 -137 4 -140 26 -143 21 -3 22 0
22 65 0 37 5 85 10 105 12 43 61 88 96 88 19 0 24 5 24 26 0 25 -2 26 -35 21
-19 -3 -49 -15 -65 -27 l-30 -21 0 25 c0 19 -5 26 -20 26 -11 0 -23 -6 -26
-13z"/>
</g>
</svg>
